<?xml version="1.0" encoding="utf-8"?>
<!-- Generator: Adobe Illustrator 21.0.0, SVG Export Plug-In . SVG Version: 6.00 Build 0)  -->
<svg version="1.1" id="Layer_1" xmlns="http://www.w3.org/2000/svg" xmlns:xlink="http://www.w3.org/1999/xlink" x="0px" y="0px"
	 viewBox="0 0 100 100" style="enable-background:new 0 0 100 100;" xml:space="preserve">
<title>lodging.svg</title>
<rect style="fill:none;" width="100" height="100"/>
<path style="fill:#FFFFFF;" d="M20.5,0h59.1C90.8,0,100,9.2,100,20.5v59.1c0,11.3-9.2,20.5-20.5,20.5H20.5C9.2,100,0,90.8,0,79.5
	V20.5C0,9.2,9.2,0,20.5,0z"/>
<path style="fill:#8461C4;" d="M50.8,14C46.4,14,45,25.6,45,25.6V37L16,57.4v5.8L45,56v13.9l-11.6,7.8v5.8l17.4-4.3l17.4,4.3v-5.8
	l-11.6-7.8V56l29,7.2v-5.8L56.5,37V25.6C56.5,25.6,55.1,14,50.8,14z"/>
</svg>
