<?xml version="1.0" encoding="utf-8"?>
<!-- Generator: Adobe Illustrator 21.0.0, SVG Export Plug-In . SVG Version: 6.00 Build 0)  -->
<svg version="1.1" id="Layer_1" xmlns="http://www.w3.org/2000/svg" xmlns:xlink="http://www.w3.org/1999/xlink" x="0px" y="0px"
	 viewBox="0 0 100 100" style="enable-background:new 0 0 100 100;" xml:space="preserve">
<title>lodging.svg</title>
<rect style="fill:none;" width="100" height="100"/>
<path style="fill:#FFFFFF;" d="M20.5,0h59.1C90.8,0,100,9.2,100,20.5v59.1c0,11.3-9.2,20.5-20.5,20.5H20.5C9.2,100,0,90.8,0,79.5
	V20.5C0,9.2,9.2,0,20.5,0z"/>
<path style="fill:#AF305B;" d="M15.9,25c-1.4,0-2.3,0.9-2.3,2.3v34.1v9.1c0,1.4,0.9,2.3,2.3,2.3s2.3-0.9,2.3-2.3v-6.8h59.1v6.8
	c0,1.4,0.9,2.3,2.3,2.3c1.4,0,2.3-0.9,2.3-2.3v-9.1c0-1.4-0.9-2.3-2.3-2.3H18.2V27.3C18.2,25.9,17.3,25,15.9,25z M29.5,27.3
	c-3.6,0-6.8,3.2-6.8,6.8l0,0c0,3.6,3.2,6.8,6.8,6.8l0,0c3.6,0,6.8-3.2,6.8-6.8l0,0C36.4,30.5,33.2,27.3,29.5,27.3L29.5,27.3z
	 M45.5,31.8c-6.8,0-6.8,6.8-6.8,6.8v6.8H25c-1.4,0-2.3,0.9-2.3,2.3v4.5c0,1.4,0.9,2.3,2.3,2.3h15.9h40.9V43.2
	c0-11.4-11.4-11.4-11.4-11.4H45.5z"/>
</svg>
