<?xml version="1.0" encoding="utf-8"?>
<!-- Generator: Adobe Illustrator 21.0.0, SVG Export Plug-In . SVG Version: 6.00 Build 0)  -->
<svg version="1.1" id="Layer_1" xmlns="http://www.w3.org/2000/svg" xmlns:xlink="http://www.w3.org/1999/xlink" x="0px" y="0px"
	 viewBox="0 0 100 100" style="enable-background:new 0 0 100 100;" xml:space="preserve">
<title>lodging.svg</title>
<rect style="fill:none;" width="100" height="100"/>
<path style="fill:#FFFFFF;" d="M20.5,0h59.1C90.8,0,100,9.2,100,20.5v59.1c0,11.3-9.2,20.5-20.5,20.5H20.5C9.2,100,0,90.8,0,79.5
	V20.5C0,9.2,9.2,0,20.5,0z"/>
<path id="restaurant" style="fill:#C77400;" d="M26.6,19c-1.1,0-2.3,1.1-2.3,3.4v28.7c0,4.6,8,4.6,8,9.2l-2.3,23h11.5l-2.3-23
	c0-4.6,8-4.6,8-9.2V22.4c0-4.6-4.6-4.6-4.6,0v24.1c0,2.6-4.6,2.6-4.6,0V22.4c0-4.6-4.6-4.6-4.6,0v24.1c0,2.4-4.6,2.4-4.6,0V22.4
	C28.9,20.1,27.8,19,26.6,19z M65.7,19c-4.6,0-13.8,9.2-13.8,23s10.3,18.4,10.3,18.4l-2.3,23h11.5l-2.3-23c0,0,10.3-4.6,10.3-18.4
	S70.3,19,65.7,19z"/>
</svg>
