<?xml version="1.0" encoding="utf-8"?>
<!-- Generator: Adobe Illustrator 21.0.0, SVG Export Plug-In . SVG Version: 6.00 Build 0)  -->
<svg version="1.1" id="Layer_1" xmlns="http://www.w3.org/2000/svg" xmlns:xlink="http://www.w3.org/1999/xlink" x="0px" y="0px"
	 viewBox="0 0 100 100" style="enable-background:new 0 0 100 100;" xml:space="preserve">
<title>lodging.svg</title>
<rect style="fill:none;" width="100" height="100"/>
<path style="fill:#FFFFFF;" d="M20.5,0h59.1C90.8,0,100,9.2,100,20.5v59.1c0,11.3-9.2,20.5-20.5,20.5H20.5C9.2,100,0,90.8,0,79.5
	V20.5C0,9.2,9.2,0,20.5,0z"/>
<path style="fill:#8515FF;" d="M51.9,19.3L60.7,37l19.6,2.8c1.2,0.2,2,1.3,1.8,2.4c-0.1,0.5-0.3,0.9-0.6,1.2L67.3,57.3l3.3,19.5
	c0.2,1.2-0.6,2.3-1.8,2.5c-0.5,0.1-0.9,0-1.4-0.2L50,69.9l-17.5,9.2c-1,0.6-2.3,0.1-2.9-0.9c-0.2-0.4-0.3-0.9-0.2-1.4l3.3-19.5
	L18.6,43.5c-0.8-0.8-0.9-2.2,0-3c0.3-0.3,0.8-0.6,1.2-0.6L39.3,37l8.8-17.7c0.5-1.1,1.8-1.5,2.9-1C51.4,18.5,51.7,18.9,51.9,19.3z"
	/>
</svg>
