<?xml version="1.0" encoding="UTF-8" standalone="no"?>
<!DOCTYPE svg PUBLIC "-//W3C//DTD SVG 1.1//EN" "http://www.w3.org/Graphics/SVG/1.1/DTD/svg11.dtd">
<svg width="100%" height="100%" viewBox="0 0 1865 625" version="1.1" xmlns="http://www.w3.org/2000/svg" xmlns:xlink="http://www.w3.org/1999/xlink" xml:space="preserve" xmlns:serif="http://www.serif.com/" style="fill-rule:evenodd;clip-rule:evenodd;stroke-linecap:square;stroke-miterlimit:3;">
    <g transform="matrix(1,0,0,1,-10397,-9721)">
        <g transform="matrix(8.33333,0,0,8.33333,7798.34,5882.73)">
            <g transform="matrix(0.596227,0.802816,0.802816,-0.596227,327.221,474.755)">
                <path d="M3.703,-15.217L19.677,-15.217L34.26,4.388L9.696,1.22L3.703,-15.217Z" style="fill:none;fill-rule:nonzero;stroke:white;stroke-width:0.68px;"/>
            </g>
            <g transform="matrix(0.300337,-0.953833,-0.953833,-0.300337,339.376,491.359)">
                <path d="M7.487,8.013L23.882,8.013L19.447,-7.523L-4.359,-13.738L7.487,8.013" style="fill:none;fill-rule:nonzero;stroke:white;stroke-width:0.68px;"/>
            </g>
            <g transform="matrix(0.883234,-0.468933,-0.468933,-0.883234,349.374,479.813)">
                <path d="M4.891,2.775L21.328,2.775L16.046,-13.011L-7.712,-18.357L4.891,2.775Z" style="fill:none;fill-rule:nonzero;stroke:white;stroke-width:0.68px;"/>
            </g>
            <g transform="matrix(0.758738,-0.651396,-0.651396,-0.758738,360.129,508.381)">
                <path d="M-1.105,12.465L23.247,12.465L30.694,-0.464L15.76,-2.56L-1.105,12.465" style="fill:none;fill-rule:nonzero;stroke:white;stroke-width:0.68px;"/>
            </g>
            <g transform="matrix(1,0,0,1,351.171,529.322)">
                <path d="M0,-29.679L-1.005,-7.518L-13.012,0.019L-17.477,-14.657L0,-29.679L14.104,-13.751L28.891,-16.707L22.583,-29.265L0,-29.679L-1.005,-7.518L11.054,-0.442L14.196,-13.846L0,-29.679L-17.392,-14.687L-31.829,-16.122L-24.434,-29.698L0,-29.679" style="fill:none;fill-rule:nonzero;stroke:white;stroke-width:0.68px;"/>
            </g>
            <g transform="matrix(0.470932,-0.88217,-0.88217,-0.470932,332.423,519.845)">
                <path d="M2.672,12.722L13.393,12.722L22.783,-3.617L6.32,2.11L2.672,12.722Z" style="fill:none;fill-rule:nonzero;stroke:white;stroke-width:0.68px;"/>
            </g>
            <g transform="matrix(1,0,0,1,327.854,493.351)">
                <path d="M0,-4.415L-1.13,-1.4L-2.46,-4.115L2.492,-5.4C2.492,-5.4 2.318,-3.853 1.021,-1.218C-0.274,1.417 -1.418,2.383 -1.418,2.383L-6.748,-5.49C-6.748,-5.49 -4.784,-5.775 -0.416,-7.088C3.953,-8.399 4.738,-8.723 4.738,-8.723C4.738,-8.723 4.676,-3.826 3.523,-1.301C2.399,1.164 0.225,4.172 0.225,4.172C0.225,4.172 3.338,3.61 8.679,3.743C15.464,3.911 18.177,4.308 18.177,4.308L6.699,-7.116C6.699,-7.116 7.139,-4.007 6.403,-2.045C5.487,0.398 4.371,1.673 4.371,1.673L13.353,1.986L8.79,-1.799L8.13,-0.207L10.244,-0.22" style="fill:none;fill-rule:nonzero;stroke:white;stroke-width:0.68px;"/>
            </g>
            <g transform="matrix(1,0,0,1,341.38,507.306)">
                <path d="M0,13.289L1.706,13.879L-1.014,15.4L-2.44,11.377C-2.44,11.377 -0.428,10.357 2.207,11.653C4.843,12.95 5.218,14.202 5.218,14.202L-2.053,18.776C-2.053,18.776 -2.343,17.458 -3.662,13.092C-4.452,10.479 -5.306,9.433 -5.306,9.433C-5.306,9.433 -3.002,7.705 1.314,9.623C5.911,11.666 6.536,12.888 6.536,12.888C6.536,12.888 6.643,13.48 7.168,3.997C7.693,-5.487 7.63,-3.416 7.63,-3.416L-3.166,6.59C-3.166,6.59 -0.827,5.801 1.559,6.855C3.945,7.909 5.142,8.879 5.142,8.879L5.254,1.387L1.152,4.999L3.516,5.51L3.017,4.012L2.876,3.613" style="fill:none;fill-rule:nonzero;stroke:white;stroke-width:0.68px;"/>
            </g>
            <g transform="matrix(1,0,0,1,363.481,489.622)">
                <path d="M0,-12.681L-3.061,-14.405L-0.25,-15.516L0.643,-10.479C0.643,-10.479 -0.887,-10.774 -3.412,-12.273C-5.937,-13.773 -6.479,-14.484 -6.479,-14.484L1.375,-18.468C1.375,-18.468 1.588,-17.703 2.553,-13.245C3.518,-8.787 3.778,-7.979 3.778,-7.979C3.778,-7.979 1.352,-6.708 -3.525,-9.773C-5.845,-11.23 -9.037,-13.17 -9.037,-13.17C-9.037,-13.17 -8.908,-10.714 -9.326,-5.082C-10.132,5.787 -10.163,5.769 -10.163,5.769L2.028,-5.939C2.028,-5.939 -1.44,-6.16 -3.01,-6.844C-5.402,-7.885 -6.616,-8.507 -6.616,-8.507L-7.526,0.564L-2.53,-4.602L-4.978,-5.266L-4.58,-3.056" style="fill:none;fill-rule:nonzero;stroke:white;stroke-width:0.68px;"/>
            </g>
            <g transform="matrix(1,0,0,1,371.376,506.472)">
                <path d="M0,1.841L1.183,0.1L2.713,3.171L-2.353,4.307C-2.353,4.307 -2.221,2.178 -1.361,0.648C-0.414,-1.038 1.847,-2.463 1.847,-2.463L6.19,4.815C6.19,4.815 3.262,5.121 0.298,5.703C-1.999,6.154 -5.053,6.701 -5.053,6.701C-5.053,6.701 -5.118,4.458 -3.503,0.646C-1.821,-3.325 1.309,-4.86 1.309,-4.86C1.309,-4.86 -1.811,-4.778 -8.112,-4.612L-15.584,-4.329L-6.747,5.08C-6.747,5.08 -6.851,2.627 -5.612,0.33C-4.373,-1.966 -3.479,-3.012 -3.479,-3.012L-11.408,-2.58L-7.666,1.057L-6.688,-1.208L-8.921,-0.662" style="fill:none;fill-rule:nonzero;stroke:white;stroke-width:0.68px;"/>
            </g>
            <g transform="matrix(0.738034,-0.674763,-0.674763,-0.738034,362.708,504.768)">
                <path d="M-0.928,9.858L17.5,9.858L23.262,0.063L11.498,-1.755L-0.928,9.858Z" style="fill:none;fill-rule:nonzero;stroke:white;stroke-width:0.68px;"/>
            </g>
            <g transform="matrix(0.0220414,0.999757,0.999757,-0.0220414,368.125,509.249)">
                <path d="M-5.471,-15.33L10.998,-15.33L15.611,-8.351L5.946,-5.378L-5.471,-15.33Z" style="fill:none;fill-rule:nonzero;stroke:white;stroke-width:0.68px;"/>
            </g>
            <g transform="matrix(-0.213151,0.977019,0.977019,0.213151,357.35,481.251)">
                <path d="M-8.283,-19.963L4.947,-19.963L15.615,-4.554L-3.682,-8.096L-8.283,-19.963Z" style="fill:none;fill-rule:nonzero;stroke:white;stroke-width:0.68px;"/>
            </g>
            <g transform="matrix(1,0,0,1,321.026,469.389)">
                <path d="M0,13.503L11.194,10.739L13.914,0L12.387,2.181L9.41,2.012L8.414,5.282L6.248,5.209L5.431,8.429L2.802,9.399L2.514,12.367L0,13.503Z" style="fill:white;fill-rule:nonzero;stroke:white;stroke-width:0.68px;"/>
            </g>
            <g transform="matrix(1,0,0,1,340.471,525.774)">
                <path d="M0,4.742L9.802,-1.33L19.382,4.232L16.755,3.8L14.795,6.046L11.76,4.471L10.298,6.072L7.425,4.405L4.893,5.607L2.568,3.738L0,4.742Z" style="fill:white;fill-rule:nonzero;stroke:white;stroke-width:0.68px;"/>
            </g>
            <g transform="matrix(1,0,0,1,362.462,470.026)">
                <path d="M0,-3.269L-10.151,2.198L-19.377,-3.934L-16.781,-3.343L-14.688,-5.467L-11.755,-3.712L-10.198,-5.221L-7.431,-3.383L-4.831,-4.429L-2.625,-2.423L0,-3.269Z" style="fill:white;fill-rule:nonzero;stroke:white;stroke-width:0.68px;"/>
            </g>
            <g transform="matrix(1,0,0,1,378.6,528.377)">
                <path d="M0,-13.502L-11.193,-10.738L-13.914,0L-12.387,-2.181L-9.41,-2.012L-8.414,-5.282L-6.247,-5.209L-5.431,-8.429L-2.802,-9.399L-2.513,-12.367L0,-13.502Z" style="fill:white;fill-rule:nonzero;stroke:white;stroke-width:0.68px;"/>
            </g>
            <g transform="matrix(1,0,0,1,317.255,510.089)">
                <path d="M0,-19.33L6.562,-9.851L1.495,0L1.793,-2.645L-0.55,-4.488L0.868,-7.6L-0.805,-8.978L0.714,-11.933L-0.615,-14.4L1.133,-16.816L0,-19.33Z" style="fill:white;fill-rule:nonzero;stroke:white;stroke-width:0.68px;"/>
            </g>
            <g transform="matrix(1,0,0,1,335.655,515.335)">
                <path d="M0,12.347L-3.977,1.525L-14.949,0L-12.614,1.28L-12.455,4.256L-9.095,4.887L-8.93,7.048L-5.639,7.506L-4.386,10.013L-1.404,9.974L0,12.347Z" style="fill:white;fill-rule:nonzero;stroke:white;stroke-width:0.68px;"/>
            </g>
            <g transform="matrix(1,0,0,1,370.303,486.016)">
                <path d="M0,-15.402L1.431,-3.961L11.775,0L9.79,-1.772L10.307,-4.708L7.176,-6.081L7.503,-8.224L4.401,-9.413L3.746,-12.138L0.832,-12.773L0,-15.402Z" style="fill:white;fill-rule:nonzero;stroke:white;stroke-width:0.68px;"/>
            </g>
            <g transform="matrix(1,0,0,1,381.53,491.665)">
                <path d="M0,19.296L-4.812,8.817L1.893,0L1.139,2.553L3.125,4.775L1.187,7.593L2.595,9.241L0.585,11.887L1.464,14.548L-0.678,16.622L0,19.296Z" style="fill:white;fill-rule:nonzero;stroke:white;stroke-width:0.68px;"/>
            </g>
            <g transform="matrix(1,0,0,1,327.462,506.827)">
                <path d="M0,0.777C0,0.777 -0.474,0.123 -0.768,0.36C-1.062,0.597 -1.92,1.208 -1.434,1.841C-0.947,2.475 -0.173,3.484 0.249,3.42C0.671,3.355 1.752,2.511 2.377,1.951C3.002,1.39 3.605,0.182 4.254,-0.056C4.903,-0.295 6.851,-0.778 7.11,-1.058C7.369,-1.339 7.879,-2.305 8.543,-2.541C9.25,-2.707 9.958,-2.367 10.137,-1.743C10.315,-1.118 9.812,-0.651 9.365,-0.517C8.918,-0.382 8.051,-0.612 7.767,-1.072C7.481,-1.532 7.574,-1.485 7.574,-1.485" style="fill:none;fill-rule:nonzero;stroke:white;stroke-width:0.68px;"/>
            </g>
            <g transform="matrix(1,0,0,1,328.976,511.658)">
                <path d="M0,-2.166C0,-2.166 0.332,-1.604 0.318,-1.105C0.305,-0.605 0.329,0 0.329,0" style="fill:none;fill-rule:nonzero;stroke:white;stroke-width:0.68px;"/>
            </g>
            <g transform="matrix(1,0,0,1,329.839,511.023)">
                <path d="M0,-2.245C0,-2.245 0.508,-1.811 0.657,-1.39C0.808,-0.968 1.15,0 1.15,0" style="fill:none;fill-rule:nonzero;stroke:white;stroke-width:0.68px;"/>
            </g>
            <g transform="matrix(0.349062,0.9371,0.9371,-0.349062,333.127,507.132)">
                <path d="M-0.831,-1.196L1.722,-1.196" style="fill:none;fill-rule:nonzero;stroke:white;stroke-width:0.68px;"/>
            </g>
            <g transform="matrix(0.580135,0.81452,0.81452,-0.580135,334.199,506.178)">
                <path d="M-0.486,-0.944L1.83,-0.944" style="fill:none;fill-rule:nonzero;stroke:white;stroke-width:0.68px;"/>
            </g>
            <g transform="matrix(1,0,0,1,326.852,503.503)">
                <path d="M0,1.491C0,1.491 1.389,1.629 1.875,1.827C2.361,2.026 2.741,2.561 2.741,2.561C2.741,2.561 3.739,1.646 4.556,1.243C5.372,0.84 6.233,0.601 6.233,0.601C6.233,0.601 6.073,-0.41 5.591,-0.739C5.108,-1.068 4.468,-1.07 4.468,-1.07C4.468,-1.07 3.075,-1.048 2.611,-0.779C2.147,-0.508 1.733,-0.278 1.733,-0.278" style="fill:none;fill-rule:nonzero;stroke:white;stroke-width:0.68px;"/>
            </g>
            <g transform="matrix(0.944186,-0.329413,-0.329413,-0.944186,341.181,478.97)">
                <path d="M-0.114,0.673L3.972,0.673" style="fill:none;fill-rule:nonzero;stroke:white;stroke-width:0.68px;"/>
            </g>
            <g transform="matrix(0.312187,0.950021,0.950021,-0.312187,348.397,482.904)">
                <path d="M-2.402,-3.317L4.582,-3.317" style="fill:none;fill-rule:nonzero;stroke:white;stroke-width:0.68px;"/>
            </g>
            <g transform="matrix(1,0,0,1,348.444,489.488)">
                <path d="M0,-2.482L-3.792,-1.137L-3.39,0" style="fill:none;fill-rule:nonzero;stroke:white;stroke-width:0.68px;"/>
            </g>
            <g transform="matrix(0.352304,0.935886,0.935886,-0.352304,349.11,487.173)">
                <path d="M-0.391,-0.565L0.816,-0.565" style="fill:none;fill-rule:nonzero;stroke:white;stroke-width:0.68px;"/>
            </g>
            <g transform="matrix(0.339703,-0.940533,-0.940533,-0.339703,339.659,480.76)">
                <path d="M-0.689,0.981L1.398,0.981" style="fill:none;fill-rule:nonzero;stroke:white;stroke-width:0.68px;"/>
            </g>
            <g transform="matrix(0.958008,0.286743,0.286743,-0.958008,346.811,475.987)">
                <path d="M-0.054,-0.37L2.523,-0.369" style="fill:none;fill-rule:nonzero;stroke:white;stroke-width:0.68px;"/>
            </g>
            <g transform="matrix(1,0,0,1,337.986,478.986)">
                <path d="M0,0.549C0,0.549 2.893,3.893 6.51,2.672C10.126,1.451 10.156,-3.344 10.156,-3.344" style="fill:none;fill-rule:nonzero;stroke:white;stroke-width:0.68px;"/>
            </g>
            <g transform="matrix(-0.661445,0.749994,0.749994,0.661445,344.21,484.726)">
                <path d="M1.519,-4.103C1.519,-4.103 0.956,-2.515 0.57,-2.263C0.183,-2.012 1.519,0.392 1.519,0.392C1.519,0.392 2.07,0.135 2.46,-0.156C2.85,-0.446 2.577,-2.199 2.577,-2.199" style="fill:none;fill-rule:nonzero;stroke:white;stroke-width:0.68px;"/>
            </g>
            <g transform="matrix(1,0,0,1,348.519,484.27)">
                <path d="M0,-3.676C0,-3.676 -0.226,-3.168 -0.554,-2.82C-0.882,-2.472 -1.349,-1.962 -1.349,-1.962L-0.884,-0.022L0.268,0C0.268,0 0.783,-0.027 0.833,-0.337C0.883,-0.649 0.639,-1.874 0.639,-1.874" style="fill:none;fill-rule:nonzero;stroke:white;stroke-width:0.68px;"/>
            </g>
            <g transform="matrix(-0.941586,0.336772,0.336772,0.941586,342.136,479.753)">
                <ellipse cx="0.049" cy="-0.137" rx="0.142" ry="0.146" style="fill:none;stroke:white;stroke-width:0.68px;"/>
            </g>
            <g transform="matrix(-0.942672,0.33372,0.33372,0.942672,345.03,478.823)">
                <ellipse cx="0.049" cy="-0.139" rx="0.141" ry="0.146" style="fill:none;stroke:white;stroke-width:0.68px;"/>
            </g>
            <g transform="matrix(1,0,0,1,365.169,489.84)">
                <path d="M0,0.569C0,0.569 1.993,2.483 4.277,1.656C6.562,0.829 8.992,-1.914 8.992,-1.914" style="fill:none;fill-rule:nonzero;stroke:white;stroke-width:0.68px;"/>
            </g>
            <g transform="matrix(0.154521,0.987989,0.987989,-0.154521,373.097,491.894)">
                <path d="M-2.952,-3.45L4.031,-3.45" style="fill:none;fill-rule:nonzero;stroke:white;stroke-width:0.68px;"/>
            </g>
            <g transform="matrix(0.390258,-0.920706,-0.920706,-0.390258,370.255,499.388)">
                <path d="M0.805,3.246L1.861,3.246L3.276,1.427L4.556,-0.399L4.508,-1.382" style="fill:none;fill-rule:nonzero;stroke:white;stroke-width:0.68px;"/>
            </g>
            <g transform="matrix(1,0,0,1,374.003,493.376)">
                <path d="M0,-2.569L-2.062,-1.185L-2.004,0L1.246,-0.326L1.323,-1.389L0.837,-1.487" style="fill:none;fill-rule:nonzero;stroke:white;stroke-width:0.68px;"/>
            </g>
            <g transform="matrix(1,0,0,1,363.633,493.691)">
                <path d="M0,0.794L0.059,1.872L3.844,1.08L3.889,-1.025L2.192,-0.549L0.769,-1.078" style="fill:none;fill-rule:nonzero;stroke:white;stroke-width:0.68px;"/>
            </g>
            <g transform="matrix(-0.942434,0.334393,0.334393,0.942434,369.45,489.022)">
                <ellipse cx="0.278" cy="-0.785" rx="0.832" ry="0.832" style="fill:none;stroke:white;stroke-width:0.68px;"/>
            </g>
            <g transform="matrix(-0.942434,0.334393,0.334393,0.942434,356.477,512.925)">
                <ellipse cx="0.278" cy="-0.785" rx="0.832" ry="0.832" style="fill:none;stroke:white;stroke-width:0.68px;"/>
            </g>
            <g transform="matrix(0.334282,0.942473,0.942473,-0.334282,360.839,514.358)">
                <path d="M-2.762,-3.911L5.536,-3.911" style="fill:none;fill-rule:nonzero;stroke:white;stroke-width:0.68px;"/>
            </g>
            <g transform="matrix(1,0,0,1,357.779,520.812)">
                <path d="M0,1.041L1.226,0.071L2.445,0" style="fill:none;fill-rule:nonzero;stroke:white;stroke-width:0.68px;"/>
            </g>
            <g transform="matrix(-0.89862,0.438728,0.438728,0.89862,358.799,519.749)">
                <path d="M-2.333,-0.539L0.125,-0.539" style="fill:none;fill-rule:nonzero;stroke:white;stroke-width:0.68px;"/>
            </g>
            <g transform="matrix(1,0,0,1,358.648,517.321)">
                <path d="M0,-4.755C0,-4.755 0.442,-4.577 -0.325,-3.85C-1.093,-3.122 -3.83,-1.977 -3.83,-1.977C-3.83,-1.977 -4.669,-1.676 -4.521,-1.343C-4.372,-1.01 -3.895,-0.064 -3.288,-0.031C-2.681,0 -1.03,-0.349 -1.03,-0.349" style="fill:none;fill-rule:nonzero;stroke:white;stroke-width:0.68px;"/>
            </g>
            <g transform="matrix(1,0,0,1,357.841,520.69)">
                <path d="M0,-3.088C0,-3.088 -0.054,-2.634 -0.657,-2.333C-1.26,-2.033 -2.072,-1.637 -2.072,-1.637C-2.072,-1.637 -2.777,-1.295 -2.746,-0.876C-2.714,-0.457 -2.368,-0.03 -1.96,-0.016C-1.553,0 -0.663,-0.105 -0.263,-0.321C0.138,-0.539 0.79,-0.863 0.79,-0.863" style="fill:none;fill-rule:nonzero;stroke:white;stroke-width:0.68px;"/>
            </g>
            <g transform="matrix(1,0,0,1,359.245,516.967)">
                <path d="M0,-2.439L0.177,-1.987L-0.343,-1.146L0.348,0L1.714,-0.956L2.758,-1.143L1.526,-1.869" style="fill:none;fill-rule:nonzero;stroke:white;stroke-width:0.68px;"/>
            </g>
            <g transform="matrix(-0.414432,0.91008,0.91008,0.414432,362.162,516.921)">
                <path d="M-0.932,-0.6L0.386,-0.6" style="fill:none;fill-rule:nonzero;stroke:white;stroke-width:0.68px;"/>
            </g>
            <g transform="matrix(-0.942456,0.334331,0.334331,0.942456,372.848,526.17)">
                <ellipse cx="12.084" cy="-34.062" rx="37.131" ry="36.143" style="fill:none;stroke:white;stroke-width:0.74px;"/>
            </g>
            <g transform="matrix(1,0,0,1,514.167,515.83)">
                <path d="M0,4.119C0,4.119 1.108,7.785 6.575,7.819C12.043,7.852 17.072,3.208 17.072,3.208L14.832,-3.733C14.832,-3.733 13.45,1.391 9.064,2.148C5.146,2.824 4.336,1.346 4.336,1.346C4.336,1.346 0.796,1.511 0,4.119" style="fill:white;fill-rule:nonzero;"/>
            </g>
            <g transform="matrix(1,0,0,1,507.681,522.684)">
                <path d="M0,-13.867L-5.147,-8.459C-5.147,-8.459 -5.771,-7.644 -5.038,-6.713C-4.307,-5.781 0.791,-0.58 0.791,-0.58C0.791,-0.58 1.225,0 1.715,-0.418C2.205,-0.835 6.333,-4.271 6.333,-4.271L6.18,-6.569L0,-13.867Z" style="fill:none;fill-rule:nonzero;stroke:white;stroke-width:0.39px;stroke-linecap:round;"/>
            </g>
            <g transform="matrix(1,0,0,1,513.851,508.301)">
                <path d="M0,8.308L-5.712,1.937C-5.712,1.937 -6.374,1.231 -6.329,0.616C-6.283,0 -5.432,0.445 -5.432,0.445C-5.432,0.445 -2.938,2.145 -1.25,2.426C0.437,2.707 1.793,2.48 1.793,2.48L0.77,3.18C0.77,3.18 0.03,3.614 0.034,4.701C0.039,5.787 0,8.308 0,8.308" style="fill:white;fill-rule:nonzero;"/>
            </g>
            <g transform="matrix(1,0,0,1,513.86,513.754)">
                <path d="M0,2.361C0,2.361 -0.286,-1.108 0.104,-1.726C0.62,-2.541 1.263,-2.911 1.9,-3.062C4.321,-3.631 4.332,-3.633 5.786,-3.849L6.45,3.126C6.45,3.126 2.581,3.359 1.099,4.963C0.651,5.447 0.518,6.21 0.518,6.21C0.518,6.21 0.148,5.202 0.116,3.801L0,2.361" style="fill:none;fill-rule:nonzero;stroke:white;stroke-width:0.39px;stroke-linecap:round;"/>
            </g>
            <g>
                <g>
                    <g>
                        <g>
                            <clipPath id="_clip1">
                                <rect x="395.018" y="470.179" width="140.596" height="40.454" clip-rule="nonzero"/>
                            </clipPath>
                            <g clip-path="url(#_clip1)">
                                <text x="395.018px" y="502.746px" style="font-family:'ArialMT', 'Arial', sans-serif;font-size:38.474px;fill:white;">F<tspan x="416.152px 443.71px 467.004px 490.297px 509.327px " y="502.746px 502.746px 502.746px 502.746px 502.746px ">OSS4G</tspan></text>
                            </g>
                        </g>
                    </g>
                </g>
            </g>
            <g>
                <g>
                    <g>
                        <g>
                            <text x="396.461px" y="522.286px" style="font-family:'ArialMT', 'Arial', sans-serif;font-size:18.294px;fill:white;">B<tspan x="408.209px 419.957px 429.677px 441.425px 456.21px 460.839px 470.559px 480.279px 489.999px " y="522.286px 522.286px 522.286px 522.286px 522.286px 522.286px 522.286px 522.286px 522.286px ">ELÉM,2024</tspan></text>
                        </g>
                    </g>
                </g>
            </g>
        </g>
    </g>
</svg>
